<svg width="251" height="251" viewBox="0 0 251 251" fill="none" xmlns="http://www.w3.org/2000/svg">
<path d="M143.904 235.211C144.089 236.806 143.927 238.234 143.416 239.496C142.907 240.777 142.116 241.809 141.042 242.592C139.97 243.393 138.692 243.88 137.209 244.053C135.299 244.275 133.667 243.976 132.313 243.157C130.942 242.358 129.943 241.121 129.316 239.446L133.515 238.957C133.815 239.599 134.256 240.074 134.837 240.382C135.401 240.711 136.073 240.83 136.852 240.74C137.964 240.61 138.797 240.1 139.351 239.208C139.908 238.336 140.099 237.158 139.927 235.674C139.756 234.209 139.299 233.107 138.555 232.367C137.813 231.645 136.886 231.349 135.774 231.478C134.198 231.662 133.251 232.486 132.933 233.951L128.733 234.44C128.965 232.722 129.655 231.298 130.801 230.168C131.948 229.039 133.466 228.364 135.358 228.144C136.841 227.971 138.195 228.143 139.42 228.658C140.647 229.191 141.655 230.014 142.442 231.125C143.231 232.255 143.718 233.617 143.904 235.211Z" fill="#B4E100"/>
<path d="M117.666 244.386C116.49 244.347 115.454 244.052 114.557 243.499C113.66 242.965 112.976 242.186 112.506 241.162C112.016 240.156 111.794 238.953 111.84 237.554L112.141 228.459L116.059 228.588L115.776 237.152C115.735 238.383 116.012 239.335 116.606 240.009C117.199 240.701 118.028 241.064 119.091 241.1C120.173 241.135 121.043 240.828 121.699 240.177C122.336 239.545 122.675 238.613 122.716 237.381L122.999 228.818L126.917 228.948L126.232 249.656L122.314 249.527L122.55 242.391C122.024 243.046 121.336 243.546 120.484 243.891C119.631 244.255 118.692 244.42 117.666 244.386Z" fill="#B4E100"/>
<path d="M95.657 233.313C95.7583 232.762 95.8862 232.273 96.0408 231.846L107.193 233.899C107.304 232.78 107.078 231.846 106.513 231.097C105.949 230.348 105.171 229.882 104.18 229.7C102.748 229.436 101.616 229.864 100.783 230.982L96.6253 230.217C97.3362 228.829 98.4036 227.773 99.8277 227.048C101.248 226.342 102.867 226.156 104.685 226.49C106.154 226.761 107.416 227.325 108.473 228.184C109.508 229.058 110.246 230.152 110.687 231.467C111.11 232.778 111.178 234.214 110.891 235.775C110.6 237.354 110.024 238.681 109.162 239.756C108.3 240.831 107.231 241.583 105.956 242.013C104.682 242.442 103.292 242.519 101.786 242.242C100.336 241.975 99.099 241.425 98.0757 240.591C97.0339 239.754 96.3074 238.7 95.8961 237.428C95.463 236.172 95.3833 234.8 95.657 233.313ZM99.4472 235.149C99.2831 236.144 99.4958 236.999 100.085 237.715C100.671 238.449 101.469 238.909 102.479 239.095C103.434 239.271 104.296 239.126 105.065 238.66C105.812 238.209 106.354 237.483 106.69 236.482L99.4472 235.149Z" fill="#B4E100"/>
<path d="M94.9401 232.456C94.4221 233.976 93.6612 235.195 92.6573 236.115C91.6474 237.053 90.4893 237.644 89.1831 237.889C87.8708 238.152 86.508 238.042 85.0945 237.56C83.2747 236.94 81.9295 235.969 81.0589 234.646C80.1647 233.336 79.7945 231.789 79.9483 230.008L83.9501 231.372C83.9453 232.08 84.1388 232.699 84.5308 233.227C84.899 233.766 85.4541 234.163 86.1962 234.416C87.2563 234.777 88.228 234.674 89.1114 234.108C89.9888 233.559 90.6684 232.578 91.1503 231.164C91.6261 229.768 91.6874 228.576 91.334 227.588C90.9746 226.618 90.2649 225.952 89.2048 225.59C87.703 225.078 86.4935 225.415 85.5764 226.602L81.5746 225.237C82.523 223.786 83.7576 222.797 85.2783 222.27C86.7989 221.743 88.4603 221.787 90.2625 222.401C91.676 222.883 92.825 223.62 93.7096 224.612C94.5882 225.621 95.1439 226.797 95.3768 228.138C95.6037 229.497 95.4581 230.937 94.9401 232.456Z" fill="#B4E100"/>
<path d="M74.1299 215.284L75.7881 223.568L78.8108 217.692L82.2967 219.486L72.8184 237.911L69.3326 236.117L74.725 225.635L67.0838 229.104L62.5523 226.773L72.1883 222.976L69.5983 212.953L74.1299 215.284Z" fill="#B4E100"/>
<path d="M57.1734 202.711C58.309 203.68 59.1189 204.802 59.6031 206.074C60.0752 207.361 60.1799 208.69 59.9172 210.061C59.6403 211.42 58.9867 212.703 57.9563 213.91C56.926 215.116 55.7542 215.957 54.4411 216.431C53.1137 216.893 51.7766 216.979 50.4296 216.687C49.0706 216.411 47.8232 215.787 46.6876 214.817C45.552 213.848 44.741 212.713 44.2547 211.414C43.7563 210.13 43.6384 208.802 43.9011 207.43C44.1496 206.047 44.7891 204.752 45.8194 203.546C46.8498 202.339 48.0357 201.511 49.3773 201.061C50.7046 200.599 52.0549 200.512 53.4282 200.801C54.7752 201.092 56.0235 201.729 57.1734 202.711ZM54.955 205.308C54.4156 204.848 53.8026 204.545 53.116 204.401C52.403 204.258 51.6803 204.328 50.9479 204.611C50.2155 204.894 49.5281 205.412 48.8856 206.164C47.928 207.285 47.4927 208.399 47.5798 209.504C47.6405 210.611 48.0968 211.529 48.9485 212.256C49.8002 212.983 50.7777 213.29 51.8809 213.177C52.9579 213.066 53.9751 212.449 54.9328 211.328C55.8904 210.206 56.353 209.104 56.3207 208.021C56.262 206.94 55.8068 206.036 54.955 205.308Z" fill="#B4E100"/>
<path d="M28.986 195.551L40.7461 185.435L43.3206 188.428L41.8347 189.707C42.6728 189.651 43.5083 189.806 44.341 190.173C45.1475 190.538 45.8611 191.081 46.4819 191.803C47.2732 192.723 47.7821 193.701 48.0086 194.737C48.221 195.786 48.1287 196.838 47.7316 197.893C47.3083 198.947 46.573 199.924 45.5258 200.825L38.6268 206.759L36.0706 203.787L42.545 198.218C43.479 197.415 43.9998 196.56 44.1076 195.655C44.2012 194.762 43.9011 193.912 43.2073 193.106C42.5012 192.285 41.6997 191.854 40.8027 191.813C39.8916 191.784 38.969 192.172 38.035 192.975L31.5606 198.544L28.986 195.551Z" fill="#B4E100"/>
<path d="M27.7107 187.249L33.9763 183.119C34.4127 182.832 34.6655 182.52 34.7345 182.184C34.7778 181.842 34.635 181.422 34.3063 180.923L33.3048 179.404L36.0635 177.586L37.4194 179.643C39.2376 182.402 38.8063 184.664 36.1255 186.431L29.8832 190.545L30.9002 192.088L28.2115 193.86L27.1946 192.317L23.9916 194.428L21.8191 191.132L25.022 189.021L23.1114 186.122L25.8 184.35L27.7107 187.249Z" fill="#B4E100"/>
<path d="M9.64429 155.025C9.01071 153.23 9.05585 151.59 9.77971 150.108C10.4798 148.614 11.8155 147.519 13.7871 146.823L22.3685 143.795L23.6729 147.492L15.5932 150.343C14.449 150.746 13.6801 151.344 13.2866 152.136C12.8755 152.935 12.847 153.836 13.201 154.839C13.5551 155.842 14.1458 156.534 14.9731 156.916C15.7766 157.285 16.7504 157.268 17.8946 156.864L25.9743 154.013L27.2787 157.71L19.199 160.561C18.0548 160.965 17.286 161.563 16.8925 162.355C16.4813 163.153 16.4528 164.054 16.8069 165.057C17.1671 166.078 17.7609 166.779 18.5882 167.16C19.3917 167.53 20.3655 167.513 21.5097 167.109L29.5894 164.258L30.8939 167.955L16.2659 173.117L14.9614 169.42L16.7305 168.796C15.9467 168.538 15.2483 168.101 14.6354 167.486C14.0162 166.854 13.5483 166.088 13.2315 165.191C12.8277 164.047 12.7139 162.939 12.89 161.867C13.0485 160.801 13.4896 159.864 14.2134 159.054C13.2008 158.877 12.2808 158.43 11.4536 157.712C10.6201 156.977 10.017 156.081 9.64429 155.025Z" fill="#B4E100"/>
<path d="M23.2913 139.1C23.5146 140.577 23.3926 141.954 22.9253 143.233C22.4395 144.515 21.6485 145.588 20.5521 146.453C19.4529 147.298 18.1189 147.84 16.5501 148.077C14.9812 148.315 13.5453 148.183 12.2424 147.681C10.9366 147.161 9.86997 146.35 9.04253 145.248C8.19662 144.149 7.662 142.861 7.43866 141.385C7.21532 139.908 7.34514 138.52 7.82812 137.22C8.29264 135.922 9.0731 134.841 10.1695 133.977C11.2631 133.094 12.5943 132.534 14.1631 132.297C15.7319 132.06 17.1706 132.21 18.4792 132.748C19.785 133.268 20.8622 134.087 21.7109 135.205C22.5384 136.307 23.0651 137.605 23.2913 139.1ZM19.9137 139.611C19.8076 138.91 19.5424 138.28 19.118 137.721C18.6725 137.146 18.0803 136.726 17.3416 136.46C16.6028 136.194 15.7443 136.136 14.7661 136.283C13.3081 136.504 12.2501 137.061 11.5921 137.953C10.9129 138.83 10.6571 139.822 10.8246 140.929C10.9921 142.037 11.5299 142.909 12.438 143.545C13.3249 144.166 14.4973 144.367 15.9554 144.146C17.4135 143.926 18.4849 143.395 19.1697 142.555C19.8332 141.7 20.0812 140.718 19.9137 139.611Z" fill="#B4E100"/>
<path d="M9.04175 126.192C8.21161 125.703 7.55612 125.061 7.07528 124.267C6.59412 123.454 6.34426 122.525 6.32572 121.48L10.4411 121.407L10.4595 122.443C10.4813 123.674 10.7872 124.603 11.377 125.227C11.9665 125.832 12.9798 126.123 14.4169 126.097L22.1437 125.96L22.2132 129.879L6.70368 130.154L6.63413 126.235L9.04175 126.192Z" fill="#B4E100"/>
<path d="M15.8125 103.46C16.3691 103.521 16.866 103.614 17.3031 103.737L16.0592 115.008C17.1827 115.039 18.0978 114.745 18.8044 114.128C19.511 113.511 19.9195 112.702 20.0301 111.7C20.1898 110.253 19.6819 109.154 18.5063 108.405L18.9701 104.203C20.4053 104.812 21.5356 105.8 22.3612 107.168C23.1683 108.534 23.4704 110.136 23.2677 111.973C23.1039 113.457 22.6318 114.757 21.8514 115.873C21.0544 116.968 20.0161 117.783 18.7364 118.318C17.4587 118.834 16.0313 119.005 14.4542 118.831C12.8586 118.655 11.4936 118.176 10.3592 117.394C9.22488 116.611 8.39751 115.6 7.87711 114.359C7.35671 113.118 7.18046 111.737 7.34835 110.216C7.5101 108.75 7.96987 107.477 8.72765 106.396C9.48748 105.297 10.4867 104.496 11.7252 103.995C12.9472 103.472 14.3096 103.294 15.8125 103.46ZM14.2539 107.372C13.25 107.28 12.4122 107.554 11.7407 108.194C11.0506 108.831 10.6492 109.66 10.5366 110.681C10.4302 111.645 10.6369 112.495 11.157 113.228C11.6605 113.941 12.4236 114.429 13.4462 114.692L14.2539 107.372Z" fill="#B4E100"/>
<path d="M27.2685 93.9941C27.0532 94.67 26.6701 95.165 26.1194 95.4793C25.5565 95.7702 24.9638 95.8164 24.3413 95.618C23.7188 95.4197 23.271 95.0419 22.998 94.4847C22.7128 93.9041 22.6779 93.2758 22.8933 92.5999C23.103 91.9419 23.4892 91.4674 24.0521 91.1766C24.5972 90.8801 25.181 90.831 25.8035 91.0294C26.426 91.2277 26.8826 91.6083 27.1735 92.1712C27.4465 92.7284 27.4782 93.336 27.2685 93.9941Z" fill="#B4E100"/>
<path d="M25.6686 76.3914C24.2653 75.6119 23.2 74.6465 22.4729 73.4952C21.7295 72.3349 21.3532 71.0902 21.3441 69.7613C21.3186 68.4232 21.6685 67.1015 22.3936 65.796C23.3273 64.1153 24.522 62.9639 25.9779 62.3419C27.4265 61.6946 29.0138 61.6048 30.7399 62.0724L28.6868 65.7685C27.9906 65.638 27.3478 65.7187 26.7586 66.0106C26.1621 66.2772 25.6735 66.7531 25.2928 67.4385C24.749 68.4176 24.6774 69.3921 25.0781 70.3621C25.4626 71.323 26.3075 72.166 27.613 72.8912C28.9021 73.6073 30.0643 73.8792 31.0995 73.7069C32.1185 73.5255 32.8999 72.9453 33.4437 71.9662C34.2142 70.5791 34.0972 69.329 33.0927 68.2159L35.1458 64.5198C36.4059 65.7109 37.1602 67.1015 37.4087 68.6916C37.6572 70.2816 37.3192 71.9089 36.3946 73.5733C35.6694 74.8787 34.7403 75.8787 33.6072 76.5732C32.4577 77.2586 31.2022 77.5968 29.8406 77.5878C28.4626 77.5697 27.072 77.1709 25.6686 76.3914Z" fill="#B4E100"/>
<path d="M33.5236 49.7286C34.2409 48.7966 35.0856 48.1277 36.0577 47.7216C37.0149 47.3042 38.0467 47.2032 39.1529 47.4186C40.2557 47.6078 41.3618 48.1294 42.4712 48.9833L49.6826 54.5336L47.2917 57.64L40.5019 52.4142C39.5256 51.6628 38.5907 51.3319 37.6973 51.4215C36.789 51.4998 36.0104 51.9606 35.3614 52.8037C34.7011 53.6617 34.4436 54.5471 34.5891 55.4599C34.7311 56.3465 35.2903 57.1656 36.2666 57.917L43.0563 63.1429L40.6654 66.2493L24.2457 53.6116L26.6366 50.5052L32.2948 54.8601C32.0696 54.0508 32.0653 53.1995 32.2818 52.3061C32.4835 51.4013 32.8974 50.5422 33.5236 49.7286Z" fill="#B4E100"/>
<path d="M55.3571 38.3133C55.7453 38.7169 56.0677 39.1061 56.3245 39.4807L48.1511 47.3415C48.9947 48.084 49.8854 48.4446 50.8232 48.4233C51.7609 48.402 52.593 48.042 53.3196 47.3432C54.369 46.334 54.6822 45.1651 54.2593 43.8367L57.3066 40.9059C58.0189 42.2927 58.254 43.7759 58.012 45.3554C57.757 46.9215 56.9635 48.345 55.6316 49.626C54.5553 50.6612 53.3601 51.3574 52.0462 51.7146C50.7327 52.0455 49.4133 52.0065 48.0879 51.5978C46.7759 51.1762 45.57 50.3936 44.4702 49.25C43.3574 48.0929 42.6159 46.8507 42.2457 45.5233C41.8755 44.1959 41.8878 42.8892 42.2825 41.6031C42.6773 40.317 43.4263 39.1434 44.5295 38.0824C45.5924 37.0602 46.7609 36.3766 48.035 36.0318C49.3225 35.6741 50.6026 35.699 51.8752 36.1067C53.1484 36.488 54.309 37.2235 55.3571 38.3133ZM51.6545 40.3204C50.9423 39.6068 50.1235 39.2806 49.1982 39.3418C48.2599 39.3895 47.4208 39.7692 46.6808 40.4809C45.9812 41.1537 45.5963 41.9383 45.526 42.8347C45.4562 43.7046 45.7298 44.5681 46.3468 45.425L51.6545 40.3204Z" fill="#B4E100"/>
<path d="M56.4712 38.2311C55.5393 36.924 54.9926 35.5944 54.8311 34.2424C54.6587 32.8751 54.8541 31.5896 55.4172 30.3858C55.9695 29.1668 56.8536 28.1238 58.0696 27.257C59.6351 26.1408 61.2088 25.615 62.7907 25.6793C64.3769 25.7177 65.8486 26.319 67.206 27.4833L63.7633 29.9377C63.1908 29.5205 62.5758 29.3171 61.9183 29.3273C61.2651 29.3116 60.6194 29.5312 59.981 29.9863C59.069 30.6365 58.5854 31.4856 58.5302 32.5336C58.4642 33.5665 58.8646 34.6909 59.7315 35.9068C60.5875 37.1076 61.5199 37.8527 62.5287 38.1423C63.5266 38.4166 64.4816 38.2287 65.3936 37.5785C66.6855 36.6574 67.1173 35.4785 66.689 34.0416L70.1317 31.5872C70.7573 33.2044 70.8405 34.7842 70.3813 36.3266C69.922 37.869 68.9172 39.1929 67.3668 40.2982C66.1509 41.165 64.8821 41.6684 63.5605 41.8082C62.228 41.9329 60.949 41.6985 59.7235 41.105C58.4872 40.4962 57.4031 39.5383 56.4712 38.2311Z" fill="#B4E100"/>
<path d="M82.5584 31.3471L74.8628 27.861L77.8718 33.7441L74.3818 35.5291L64.9467 17.082L68.4367 15.297L73.8045 25.7919L75.445 17.5621L79.982 15.2416L77.4439 25.2828L87.0954 29.0265L82.5584 31.3471Z" fill="#B4E100"/>
<path d="M102.663 24.9105C101.213 25.2671 99.83 25.2708 98.5139 24.9216C97.1933 24.5544 96.0528 23.8641 95.0924 22.8507C94.1501 21.833 93.4895 20.5537 93.1107 19.0129C92.7318 17.4722 92.7328 16.0302 93.1138 14.6871C93.5129 13.3394 94.2235 12.2036 95.2458 11.2794C96.2635 10.3371 97.4975 9.68766 98.9476 9.33107C100.398 8.97448 101.792 8.9776 103.131 9.34044C104.465 9.68514 105.612 10.3641 106.573 11.3775C107.551 12.3863 108.23 13.6611 108.609 15.2019C108.988 16.7427 108.969 18.1891 108.551 19.5411C108.152 20.8888 107.435 22.0359 106.399 22.9827C105.377 23.9069 104.132 24.5495 102.663 24.9105ZM101.848 21.5933C102.536 21.4239 103.14 21.1026 103.658 20.6292C104.189 20.1332 104.554 19.5053 104.752 18.7455C104.949 17.9857 104.93 17.1254 104.694 16.1647C104.341 14.7327 103.691 13.7296 102.743 13.1555C101.808 12.5588 100.797 12.3942 99.7089 12.6616C98.6213 12.9291 97.8018 13.5439 97.2502 14.5061C96.7124 15.4457 96.6195 16.6315 96.9716 18.0635C97.3238 19.4955 97.9492 20.5143 98.8478 21.1199C99.76 21.703 100.76 21.8608 101.848 21.5933Z" fill="#B4E100"/>
<path d="M124.922 6.19407L126.277 21.6468L122.345 21.9916L122.173 20.0391C121.73 20.7526 121.116 21.3404 120.332 21.8027C119.565 22.2447 118.708 22.5073 117.759 22.5905C116.551 22.6965 115.459 22.5392 114.486 22.1186C113.51 21.6795 112.71 20.9908 112.084 20.0525C111.475 19.094 111.11 17.9268 110.99 16.5507L110.195 7.4855L114.1 7.14307L114.846 15.6504C114.954 16.8777 115.344 17.7992 116.016 18.4148C116.687 19.0118 117.552 19.2639 118.612 19.1709C119.69 19.0763 120.508 18.6767 121.064 17.9721C121.619 17.2489 121.843 16.2736 121.735 15.0463L120.989 6.53894L124.922 6.19407Z" fill="#B4E100"/>
<path d="M132.409 10.0017L132.108 17.4996C132.087 18.0219 132.193 18.4091 132.425 18.6613C132.678 18.8956 133.102 19.0248 133.699 19.0488L135.517 19.1219L135.385 22.4232L132.923 22.3242C129.621 22.1915 128.035 20.5211 128.164 17.313L128.465 9.84306L126.618 9.76881L126.747 6.55141L128.594 6.62566L128.748 2.79275L132.693 2.95136L132.539 6.78427L136.008 6.92376L135.879 10.1412L132.409 10.0017Z" fill="#B4E100"/>
<path d="M169.121 14.1272C170.949 14.6601 172.254 15.653 173.036 17.1059C173.841 18.5462 173.951 20.2698 173.366 22.2769L170.819 31.0133L167.056 29.9161L169.454 21.6906C169.793 20.5257 169.756 19.5524 169.342 18.7707C168.934 17.9711 168.219 17.4224 167.197 17.1246C166.176 16.8268 165.269 16.9027 164.477 17.3523C163.708 17.7892 163.154 18.5901 162.814 19.7549L160.416 27.9805L156.653 26.8834L159.051 18.6578C159.39 17.493 159.353 16.5197 158.939 15.738C158.531 14.9383 157.816 14.3896 156.794 14.0918C155.755 13.7888 154.839 13.8621 154.047 14.3117C153.278 14.7486 152.724 15.5495 152.384 16.7143L149.986 24.9399L146.223 23.8428L150.564 8.95071L154.328 10.0478L153.803 11.8489C154.469 11.3627 155.231 11.0501 156.088 10.9111C156.963 10.7774 157.858 10.8437 158.772 11.1102C159.937 11.4497 160.903 12.0036 161.671 12.7719C162.444 13.5222 162.948 14.4274 163.183 15.4877C163.918 14.7685 164.818 14.2823 165.883 14.0291C166.967 13.7811 168.046 13.8138 169.121 14.1272Z" fill="#B4E100"/>
<path d="M174.094 34.5017C172.764 33.8217 171.716 32.9189 170.95 31.7932C170.192 30.6509 169.782 29.3824 169.72 27.9876C169.674 26.6014 170.013 25.202 170.735 23.7893C171.458 22.3767 172.403 21.2875 173.57 20.5218C174.754 19.7646 176.035 19.3714 177.413 19.3422C178.799 19.2964 180.157 19.6136 181.486 20.2936C182.816 20.9736 183.868 21.889 184.642 23.0398C185.425 24.1739 185.847 25.4384 185.91 26.8331C185.989 28.2364 185.667 29.6443 184.944 31.0569C184.222 32.4695 183.26 33.5502 182.06 34.299C180.876 35.0562 179.582 35.4534 178.179 35.4907C176.802 35.5199 175.44 35.1902 174.094 34.5017ZM175.649 31.4604C176.281 31.7834 176.947 31.9356 177.649 31.917C178.375 31.8902 179.062 31.6544 179.709 31.2095C180.356 30.7646 180.904 30.1017 181.355 29.2209C182.026 27.908 182.192 26.724 181.851 25.669C181.535 24.6059 180.878 23.8194 179.881 23.3093C178.884 22.7993 177.862 22.7274 176.815 23.0935C175.793 23.4515 174.947 24.287 174.275 25.5999C173.604 26.9128 173.409 28.0923 173.692 29.1384C173.999 30.1764 174.652 30.9504 175.649 31.4604Z" fill="#B4E100"/>
<path d="M192.89 30.4588C193.772 30.0701 194.676 29.9121 195.601 29.9849C196.542 30.0684 197.442 30.4075 198.302 31.0021L195.961 34.3872L195.109 33.7978C194.095 33.0969 193.163 32.8039 192.312 32.9188C191.476 33.0442 190.649 33.698 189.832 34.8801L185.435 41.2357L182.211 39.0056L191.036 26.2484L194.26 28.4784L192.89 30.4588Z" fill="#B4E100"/>
<path d="M207.403 49.22C207.029 49.6362 206.664 49.9859 206.309 50.2689L197.88 42.6829C197.2 43.5779 196.904 44.4922 196.993 45.426C197.082 46.3598 197.501 47.1638 198.25 47.8381C199.332 48.8121 200.521 49.0404 201.815 48.5228L204.958 51.3512C203.626 52.1615 202.163 52.5028 200.571 52.3752C198.99 52.2337 197.513 51.5448 196.14 50.3085C195.03 49.3096 194.249 48.1677 193.798 46.8829C193.374 45.5967 193.318 44.2779 193.63 42.9265C193.956 41.5875 194.649 40.3284 195.711 39.149C196.785 37.9558 197.97 37.1268 199.268 36.6619C200.565 36.1971 201.869 36.1153 203.18 36.4163C204.492 36.7174 205.716 37.3799 206.854 38.4039C207.95 39.3904 208.716 40.5066 209.151 41.7525C209.601 43.011 209.668 44.2896 209.353 45.5882C209.065 46.8855 208.415 48.0961 207.403 49.22ZM205.135 45.6715C205.795 44.9098 206.062 44.0697 205.934 43.1511C205.819 42.2188 205.38 41.4092 204.616 40.7224C203.895 40.073 203.085 39.7456 202.186 39.74C201.313 39.7331 200.471 40.0682 199.661 40.7453L205.135 45.6715Z" fill="#B4E100"/>
<path d="M208.408 64.0464C207.985 63.4772 207.806 62.8773 207.872 62.2466C207.964 61.6198 208.273 61.1114 208.797 60.7216C209.321 60.3317 209.889 60.1884 210.501 60.2917C211.139 60.3989 211.67 60.737 212.093 61.3062C212.505 61.8605 212.665 62.451 212.573 63.0778C212.496 63.6935 212.195 64.1963 211.671 64.5861C211.146 64.976 210.571 65.1249 209.944 65.0327C209.332 64.9294 208.82 64.6006 208.408 64.0464Z" fill="#B4E100"/>
<path d="M223.638 73.0165C225.09 72.3315 226.496 72.0295 227.855 72.1106C229.231 72.1838 230.461 72.6043 231.546 73.3722C232.648 74.1321 233.517 75.1873 234.154 76.5379C234.975 78.2767 235.213 79.9188 234.869 81.4641C234.549 83.0183 233.696 84.3599 232.309 85.4889L230.505 81.6652C231.017 81.1758 231.327 80.6067 231.433 79.9579C231.565 79.3179 231.463 78.6434 231.129 77.9344C230.651 76.9214 229.901 76.2948 228.88 76.0544C227.875 75.806 226.697 76.0005 225.347 76.6377C224.013 77.2669 223.114 78.0522 222.65 78.9936C222.203 79.927 222.218 80.9001 222.696 81.913C223.373 83.348 224.457 83.9822 225.947 83.8158L227.751 87.6396C226.049 87.9682 224.479 87.7695 223.043 87.0437C221.606 86.3179 220.482 85.094 219.67 83.3721C219.032 82.0215 218.762 80.6835 218.859 79.3581C218.973 78.0246 219.431 76.8076 220.233 75.707C221.051 74.5983 222.186 73.7015 223.638 73.0165Z" fill="#B4E100"/>
<path d="M240.71 94.9513C241.049 96.0775 241.099 97.1539 240.862 98.1803C240.643 99.2013 240.123 100.098 239.303 100.871C238.505 101.656 237.437 102.25 236.096 102.653L227.381 105.272L226.253 101.518L234.458 99.0522C235.638 98.6976 236.452 98.1314 236.901 97.3534C237.367 96.5701 237.447 95.6689 237.141 94.6499C236.829 93.6131 236.26 92.8874 235.434 92.473C234.631 92.0711 233.64 92.0474 232.46 92.402L224.254 94.8679L223.126 91.1137L242.969 85.1505L244.098 88.9047L237.26 90.9596C238.048 91.2488 238.742 91.742 239.341 92.439C239.959 93.1306 240.415 93.9681 240.71 94.9513Z" fill="#B4E100"/>
<path d="M237.245 119.344C236.69 119.424 236.186 119.458 235.732 119.448L234.116 108.224C233.021 108.476 232.208 108.989 231.678 109.763C231.149 110.537 230.956 111.423 231.099 112.421C231.307 113.862 232.073 114.798 233.399 115.23L234.002 119.415C232.46 119.184 231.118 118.51 229.976 117.392C228.853 116.271 228.16 114.796 227.896 112.967C227.684 111.489 227.815 110.112 228.292 108.836C228.789 107.577 229.591 106.528 230.696 105.69C231.804 104.87 233.143 104.347 234.713 104.121C236.302 103.892 237.744 104.015 239.038 104.489C240.332 104.962 241.386 105.735 242.2 106.805C243.015 107.876 243.531 109.169 243.749 110.684C243.959 112.144 243.832 113.492 243.369 114.728C242.909 115.982 242.142 117.007 241.068 117.803C240.016 118.615 238.741 119.128 237.245 119.344ZM237.775 115.166C238.77 115.003 239.512 114.529 240.002 113.742C240.511 112.952 240.692 112.049 240.546 111.032C240.407 110.072 239.995 109.301 239.308 108.721C238.642 108.157 237.781 107.876 236.725 107.877L237.775 115.166Z" fill="#B4E100"/>
<path d="M236.661 120.296C238.267 120.302 239.666 120.634 240.858 121.291C242.069 121.949 242.999 122.858 243.648 124.017C244.316 125.177 244.647 126.504 244.642 127.997C244.635 129.92 244.144 131.504 243.169 132.752C242.213 134.018 240.866 134.862 239.128 135.285L239.143 131.057C239.816 130.836 240.34 130.455 240.715 129.915C241.109 129.394 241.307 128.741 241.31 127.957C241.314 126.837 240.907 125.949 240.088 125.293C239.287 124.636 238.141 124.306 236.647 124.3C235.173 124.295 234.023 124.618 233.2 125.268C232.395 125.919 231.99 126.804 231.986 127.924C231.981 129.51 232.686 130.549 234.103 131.039L234.088 135.267C232.41 134.832 231.078 133.978 230.093 132.705C229.108 131.432 228.619 129.844 228.626 127.94C228.632 126.447 228.963 125.122 229.62 123.967C230.296 122.812 231.233 121.91 232.43 121.261C233.646 120.612 235.056 120.291 236.661 120.296Z" fill="#B4E100"/>
<path d="M227.033 145.5L234.354 141.284L227.821 140.296L228.407 136.42L248.894 139.519L248.308 143.394L236.652 141.631L242.379 147.765L241.617 152.804L234.943 144.884L226.271 150.539L227.033 145.5Z" fill="#B4E100"/>
<path d="M220.532 165.584C221.089 164.198 221.893 163.073 222.944 162.208C224.013 161.349 225.239 160.826 226.622 160.637C227.999 160.465 229.423 160.675 230.895 161.266C232.368 161.857 233.538 162.699 234.407 163.792C235.269 164.903 235.777 166.143 235.931 167.512C236.102 168.888 235.91 170.269 235.354 171.655C234.797 173.041 233.981 174.172 232.906 175.047C231.847 175.93 230.626 176.466 229.243 176.655C227.853 176.861 226.421 176.668 224.949 176.077C223.477 175.486 222.313 174.627 221.458 173.499C220.597 172.389 220.083 171.137 219.919 169.743C219.765 168.374 219.969 166.987 220.532 165.584ZM223.703 166.857C223.438 167.515 223.347 168.193 223.43 168.889C223.522 169.611 223.82 170.273 224.321 170.877C224.823 171.481 225.533 171.967 226.451 172.335C227.82 172.885 229.014 172.942 230.033 172.506C231.064 172.095 231.787 171.37 232.204 170.331C232.622 169.291 232.601 168.267 232.141 167.258C231.691 166.273 230.782 165.505 229.414 164.956C228.046 164.407 226.853 164.32 225.837 164.697C224.831 165.097 224.12 165.817 223.703 166.857Z" fill="#B4E100"/>
<path d="M222.748 194.582L209.407 186.667L211.421 183.272L213.107 184.272C212.786 183.496 212.666 182.654 212.748 181.748C212.837 180.867 213.124 180.017 213.61 179.199C214.229 178.155 214.993 177.361 215.903 176.815C216.828 176.279 217.855 176.031 218.982 176.07C220.115 176.135 221.276 176.519 222.464 177.224L230.291 181.867L228.291 185.238L220.946 180.881C219.886 180.253 218.91 180.032 218.018 180.219C217.142 180.415 216.432 180.971 215.889 181.886C215.337 182.817 215.185 183.714 215.432 184.577C215.696 185.45 216.358 186.201 217.417 186.829L224.762 191.186L222.748 194.582Z" fill="#B4E100"/>
<path d="M215.287 198.442L209.373 193.822C208.962 193.501 208.585 193.361 208.245 193.403C207.907 193.471 207.555 193.74 207.187 194.211L206.067 195.645L203.463 193.611L204.98 191.67C207.013 189.066 209.295 188.752 211.826 190.728L217.718 195.33L218.855 193.874L221.393 195.856L220.255 197.312L223.278 199.673L220.848 202.785L217.825 200.424L215.688 203.16L213.15 201.178L215.287 198.442Z" fill="#B4E100"/>
<path d="M190.519 225.852C189.02 227.025 187.452 227.506 185.816 227.293C184.177 227.107 182.713 226.191 181.424 224.545L175.814 217.379L178.901 214.963L184.182 221.709C184.93 222.665 185.743 223.202 186.619 223.322C187.507 223.457 188.369 223.196 189.207 222.541C190.045 221.885 190.512 221.104 190.609 220.198C190.703 219.319 190.376 218.401 189.628 217.446L184.346 210.7L187.433 208.283L192.715 215.029C193.463 215.985 194.275 216.522 195.151 216.642C196.039 216.777 196.902 216.517 197.739 215.861C198.592 215.193 199.067 214.407 199.164 213.501C199.257 212.622 198.93 211.704 198.182 210.749L192.901 204.002L195.987 201.586L205.55 213.8L202.463 216.216L201.306 214.739C201.312 215.564 201.122 216.366 200.735 217.143C200.333 217.932 199.757 218.619 199.007 219.206C198.052 219.954 197.038 220.416 195.967 220.591C194.906 220.781 193.877 220.663 192.879 220.235C193.034 221.251 192.904 222.266 192.488 223.279C192.057 224.304 191.401 225.161 190.519 225.852Z" fill="#B4E100"/>
<path d="M171.07 218.004C172.398 217.321 173.743 216.997 175.104 217.031C176.474 217.082 177.743 217.489 178.913 218.252C180.065 219.024 181.004 220.115 181.73 221.526C182.456 222.937 182.789 224.34 182.73 225.735C182.654 227.138 182.227 228.408 181.446 229.544C180.675 230.696 179.625 231.614 178.297 232.297C176.969 232.98 175.612 233.301 174.226 233.258C172.848 233.232 171.575 232.838 170.405 232.075C169.22 231.32 168.264 230.238 167.538 228.827C166.812 227.416 166.495 226.004 166.588 224.592C166.663 223.189 167.095 221.907 167.884 220.745C168.664 219.609 169.726 218.696 171.07 218.004ZM172.633 221.042C172.002 221.366 171.49 221.819 171.096 222.399C170.694 223.005 170.485 223.7 170.469 224.485C170.452 225.27 170.671 226.102 171.123 226.982C171.798 228.294 172.663 229.119 173.719 229.457C174.767 229.821 175.788 229.746 176.784 229.234C177.78 228.722 178.435 227.934 178.748 226.87C179.054 225.831 178.869 224.656 178.195 223.345C177.52 222.033 176.675 221.187 175.661 220.807C174.638 220.451 173.629 220.529 172.633 221.042Z" fill="#B4E100"/>
<path d="M163.388 235.629C163.189 236.572 162.791 237.398 162.191 238.107C161.575 238.823 160.774 239.356 159.789 239.707L158.406 235.831L159.382 235.483C160.542 235.069 161.324 234.482 161.727 233.724C162.113 232.972 162.064 231.919 161.581 230.566L158.984 223.287L162.676 221.97L167.889 236.579L164.197 237.897L163.388 235.629Z" fill="#B4E100"/>
<path d="M139.684 236.471C139.564 235.924 139.493 235.424 139.47 234.97L150.549 232.55C150.219 231.476 149.649 230.702 148.838 230.23C148.028 229.757 147.131 229.628 146.146 229.843C144.723 230.154 143.845 230.986 143.51 232.34L139.379 233.242C139.498 231.687 140.074 230.3 141.107 229.081C142.144 227.88 143.565 227.083 145.371 226.688C146.829 226.369 148.212 226.402 149.519 226.785C150.811 227.191 151.915 227.914 152.83 228.956C153.728 230.002 154.346 231.3 154.684 232.85C155.027 234.419 155.009 235.865 154.629 237.19C154.25 238.515 153.556 239.622 152.546 240.511C151.537 241.4 150.284 242.008 148.789 242.335C147.348 242.65 145.995 242.621 144.729 242.248C143.444 241.879 142.367 241.187 141.496 240.174C140.61 239.183 140.006 237.949 139.684 236.471ZM143.889 236.699C144.122 237.68 144.649 238.386 145.47 238.818C146.294 239.269 147.208 239.385 148.211 239.165C149.159 238.958 149.898 238.491 150.427 237.764C150.942 237.059 151.161 236.18 151.083 235.127L143.889 236.699Z" fill="#B4E100"/>
<path d="M127.056 228.638C127.765 228.626 128.356 228.831 128.83 229.252C129.285 229.693 129.518 230.24 129.529 230.893C129.54 231.546 129.325 232.091 128.884 232.528C128.425 232.984 127.841 233.217 127.132 233.229C126.441 233.24 125.868 233.026 125.413 232.585C124.958 232.163 124.725 231.626 124.714 230.973C124.703 230.319 124.918 229.765 125.359 229.31C125.799 228.873 126.365 228.649 127.056 228.638Z" fill="#B4E100"/>
<path d="M70.0073 132.276H62.2233L60.9353 136H56.8193L63.8473 116.428H68.4113L75.4393 136H71.2953L70.0073 132.276ZM68.9433 129.14L66.1153 120.964L63.2873 129.14H68.9433ZM89.1543 125.976C90.2556 126.181 91.1609 126.732 91.8703 127.628C92.5796 128.524 92.9343 129.551 92.9343 130.708C92.9343 131.753 92.6729 132.677 92.1503 133.48C91.6463 134.264 90.9089 134.88 89.9383 135.328C88.9676 135.776 87.8196 136 86.4943 136H78.0663V116.456H86.1303C87.4556 116.456 88.5943 116.671 89.5463 117.1C90.5169 117.529 91.2449 118.127 91.7303 118.892C92.2343 119.657 92.4863 120.525 92.4863 121.496C92.4863 122.635 92.1783 123.587 91.5623 124.352C90.9649 125.117 90.1623 125.659 89.1543 125.976ZM81.9863 124.52H85.5703C86.5036 124.52 87.2223 124.315 87.7263 123.904C88.2303 123.475 88.4823 122.868 88.4823 122.084C88.4823 121.3 88.2303 120.693 87.7263 120.264C87.2223 119.835 86.5036 119.62 85.5703 119.62H81.9863V124.52ZM85.9343 132.808C86.8863 132.808 87.6236 132.584 88.1463 132.136C88.6876 131.688 88.9583 131.053 88.9583 130.232C88.9583 129.392 88.6783 128.739 88.1183 128.272C87.5583 127.787 86.8023 127.544 85.8503 127.544H81.9863V132.808H85.9343ZM105.13 136.196C103.301 136.196 101.621 135.767 100.09 134.908C98.5598 134.049 97.3465 132.864 96.4505 131.352C95.5545 129.821 95.1065 128.095 95.1065 126.172C95.1065 124.268 95.5545 122.56 96.4505 121.048C97.3465 119.517 98.5598 118.323 100.09 117.464C101.621 116.605 103.301 116.176 105.13 116.176C106.978 116.176 108.658 116.605 110.17 117.464C111.701 118.323 112.905 119.517 113.782 121.048C114.678 122.56 115.126 124.268 115.126 126.172C115.126 128.095 114.678 129.821 113.782 131.352C112.905 132.864 111.701 134.049 110.17 134.908C108.64 135.767 106.96 136.196 105.13 136.196ZM105.13 132.696C106.306 132.696 107.342 132.435 108.238 131.912C109.134 131.371 109.834 130.605 110.338 129.616C110.842 128.627 111.094 127.479 111.094 126.172C111.094 124.865 110.842 123.727 110.338 122.756C109.834 121.767 109.134 121.011 108.238 120.488C107.342 119.965 106.306 119.704 105.13 119.704C103.954 119.704 102.909 119.965 101.994 120.488C101.098 121.011 100.398 121.767 99.8945 122.756C99.3905 123.727 99.1385 124.865 99.1385 126.172C99.1385 127.479 99.3905 128.627 99.8945 129.616C100.398 130.605 101.098 131.371 101.994 131.912C102.909 132.435 103.954 132.696 105.13 132.696ZM121.907 116.456V128.552C121.907 129.877 122.252 130.895 122.943 131.604C123.634 132.295 124.604 132.64 125.855 132.64C127.124 132.64 128.104 132.295 128.795 131.604C129.486 130.895 129.831 129.877 129.831 128.552V116.456H133.779V128.524C133.779 130.185 133.415 131.595 132.687 132.752C131.978 133.891 131.016 134.749 129.803 135.328C128.608 135.907 127.274 136.196 125.799 136.196C124.343 136.196 123.018 135.907 121.823 135.328C120.647 134.749 119.714 133.891 119.023 132.752C118.332 131.595 117.987 130.185 117.987 128.524V116.456H121.907ZM150.866 116.456V119.62H145.658V136H141.738V119.62H136.53V116.456H150.866ZM164.262 116.456V128.552C164.262 129.877 164.608 130.895 165.298 131.604C165.989 132.295 166.96 132.64 168.21 132.64C169.48 132.64 170.46 132.295 171.15 131.604C171.841 130.895 172.186 129.877 172.186 128.552V116.456H176.134V128.524C176.134 130.185 175.77 131.595 175.042 132.752C174.333 133.891 173.372 134.749 172.158 135.328C170.964 135.907 169.629 136.196 168.154 136.196C166.698 136.196 165.373 135.907 164.178 135.328C163.002 134.749 162.069 133.891 161.378 132.752C160.688 131.595 160.342 130.185 160.342 128.524V116.456H164.262ZM186.67 136.196C185.307 136.196 184.075 135.963 182.974 135.496C181.891 135.029 181.032 134.357 180.398 133.48C179.763 132.603 179.436 131.567 179.418 130.372H183.618C183.674 131.175 183.954 131.809 184.458 132.276C184.98 132.743 185.69 132.976 186.586 132.976C187.5 132.976 188.219 132.761 188.742 132.332C189.264 131.884 189.526 131.305 189.526 130.596C189.526 130.017 189.348 129.541 188.994 129.168C188.639 128.795 188.191 128.505 187.65 128.3C187.127 128.076 186.399 127.833 185.466 127.572C184.196 127.199 183.16 126.835 182.358 126.48C181.574 126.107 180.892 125.556 180.314 124.828C179.754 124.081 179.474 123.092 179.474 121.86C179.474 120.703 179.763 119.695 180.342 118.836C180.92 117.977 181.732 117.324 182.778 116.876C183.823 116.409 185.018 116.176 186.362 116.176C188.378 116.176 190.011 116.671 191.262 117.66C192.531 118.631 193.231 119.993 193.362 121.748H189.05C189.012 121.076 188.723 120.525 188.182 120.096C187.659 119.648 186.959 119.424 186.082 119.424C185.316 119.424 184.7 119.62 184.234 120.012C183.786 120.404 183.562 120.973 183.562 121.72C183.562 122.243 183.73 122.681 184.066 123.036C184.42 123.372 184.85 123.652 185.354 123.876C185.876 124.081 186.604 124.324 187.538 124.604C188.807 124.977 189.843 125.351 190.646 125.724C191.448 126.097 192.139 126.657 192.718 127.404C193.296 128.151 193.586 129.131 193.586 130.344C193.586 131.389 193.315 132.36 192.774 133.256C192.232 134.152 191.439 134.871 190.394 135.412C189.348 135.935 188.107 136.196 186.67 136.196Z" fill="#B4E100"/>
</svg>
